# xmcd
#
# Track frame offsets: 
#        150
#        13621
#        27229
#        42077
#        56267
#        70196
#        84714
#        98947
#        112868
#        126082
#        139742
#        152858
#        165481
#        177521
#        189459
#        202074
#        216138
#        229036
#        243290
#        257354
#        271242
#        284586
#
# Disc length: 3973 seconds
#
# Revision: 0
# Processed by: cddbd v1.5.2PL0 Copyright (c) Steve Scherf et al.
# Submitted via: ExactAudioCopy v1.0b3
#
DISCID=310f8316
DTITLE=Biddleville Quintette - Complete Recorded Works In Chronologica
DTITLE=l Order Volume 1 1926-1929
DYEAR=1995
DGENRE=Gospel
TTITLE0=Fight on Your Own Time Ain't Long
TTITLE1=Way Down In Egypt Land (2690)
TTITLE2=I Heard The Voice of Jesus Say
TTITLE3=Wasn't That A Mighty Day (2693)
TTITLE4=Heaven Is My View
TTITLE5=Show Pity Lord
TTITLE6=Oh Why Not To-Night
TTITLE7=Whosoever Will May Come
TTITLE8=Coming To Christ
TTITLE9=Receiving The Message (take 1)
TTITLE10=Receiving The Message (take 2)
TTITLE11=Jesus Gonna Shake My Righteous Hand
TTITLE12=Jacob Sent Joseph
TTITLE13=This Train Is Bound For Glory
TTITLE14=Prodigal Son
TTITLE15=In the Garden of Gethsemane
TTITLE16=Wasn't That a Mighty Day
TTITLE17=Didn't It Rain?
TTITLE18=Jesus Is The Rock
TTITLE19=Holy Is My Name
TTITLE20=Way Down in Egypt Land (427-A)
TTITLE21=The Day Is Past And Gone
EXTD=
EXTT0=
EXTT1=
EXTT2=
EXTT3=
EXTT4=
EXTT5=
EXTT6=
EXTT7=
EXTT8=
EXTT9=
EXTT10=
EXTT11=
EXTT12=
EXTT13=
EXTT14=
EXTT15=
EXTT16=
EXTT17=
EXTT18=
EXTT19=
EXTT20=
EXTT21=
PLAYORDER=
